<svg xmlns="http://www.w3.org/2000/svg" viewBox="140 95 330 420" width="100" height="100">
  <path fill="#186dcd" d="M461.484,164.048c-0.003,-0.1,-0.008,-0.2,-0.015,-0.299c-0.026,-0.387,-0.067,-0.771,-0.143,-1.149c0,-0.001,0,-0.002,0,-0.002c-0.077,-0.384,-0.187,-0.758,-0.312,-1.126c-0.029,-0.091,-0.062,-0.18,-0.096,-0.27c-0.132,-0.353,-0.279,-0.698,-0.453,-1.031c-0.008,-0.014,-0.014,-0.029,-0.021,-0.043c-0.184,-0.347,-0.398,-0.677,-0.627,-0.997c-0.055,-0.077,-0.111,-0.152,-0.168,-0.228c-0.243,-0.319,-0.5,-0.628,-0.786,-0.915l-69.019,-69.023c-0.297,-0.296,-0.617,-0.562,-0.948,-0.811c-0.056,-0.042,-0.11,-0.083,-0.167,-0.124c-0.656,-0.472,-1.369,-0.851,-2.123,-1.13c-0.076,-0.028,-0.151,-0.056,-0.229,-0.082c-0.741,-0.252,-1.515,-0.408,-2.306,-0.46c-0.095,-0.006,-0.188,-0.011,-0.282,-0.014c-0.104,-0.004,-0.206,-0.016,-0.31,-0.016H147.5c-4.971,0,-9,4.029,-9,9v409.343c0,4.971,4.029,9,9,9h305c4.971,0,9,-4.029,9,-9V164.353C461.5,164.25,461.488,164.15,461.484,164.048ZM430.772,155.354h-38.297v-38.296L430.772,155.354ZM156.5,495.672V104.329h217.976v60.024c0,4.971,4.029,9,9,9H443.5v322.318H156.5ZM404,398.672H196c-4.971,0,-9,4.028,-9,9c0,4.971,4.029,9,9,9h208c4.971,0,9,-4.029,9,-9C413,402.7,408.971,398.672,404,398.672ZM404,447.172H196c-4.971,0,-9,4.028,-9,9c0,4.971,4.029,9,9,9h208c4.971,0,9,-4.029,9,-9M211.5,305.827h53.344v53.345c0,4.971,4.029,9,9,9h52.312c4.971,0,9,-4.029,9,-9v-53.345H388.5c4.971,0,9,-4.029,9,-9v-52.312c0,-4.971,-4.029,-9,-9,-9h-53.344v-53.344c0,-4.971,-4.029,-9,-9,-9h-52.312c-4.971,0,-9,4.029,-9,9v53.344H211.5c-4.971,0,-9,4.029,-9,9v52.312C202.5,301.798,206.529,305.827,211.5,305.827ZM220.5,253.516h53.344c4.971,0,9,-4.029,9,-9v-53.344h34.312v53.344c0,4.971,4.029,9,9,9H379.5v34.312h-53.344c-4.971,0,-9,4.029,-9,9v53.345h-34.312v-53.345c0,-4.971,-4.029,-9,-9,-9H220.5V253.516Z"/>
</svg>
