<svg viewBox="0 0 542 542" xmlns="http://www.w3.org/2000/svg">
  <path fill="#0070f3" d="
    M300,252.016 c25.005,0,45.348,-20.343,45.348,-45.348 c0,-25.004,-20.343,-45.347,-45.348,-45.347 s-45.348,20.343,-45.348,45.347 C254.652,231.673,274.995,252.016,300,252.016 Z M300,179.321 c15.079,0,27.348,12.268,27.348,27.347 S315.079,234.016,300,234.016 s-27.348,-12.269,-27.348,-27.348 S284.921,179.321,300,179.321 Z M440.145,252.016 c25.005,0,45.348,-20.343,45.348,-45.348 c0,-25.004,-20.343,-45.347,-45.348,-45.347 s-45.348,20.343,-45.348,45.347 C394.797,231.673,415.14,252.016,440.145,252.016 Z M440.145,179.321 c15.079,0,27.348,12.268,27.348,27.347 s-12.269,27.348,-27.348,27.348 s-27.348,-12.269,-27.348,-27.348 S425.065,179.321,440.145,179.321 Z M506.727,273.555 H373.562 c-1.573,0,-3.12,0.116,-4.639,0.318 c-0.748,-0.201,-1.53,-0.318,-2.342,-0.318 H233.418 c-1.574,0,-3.12,0.116,-4.639,0.318 c-0.748,-0.201,-1.53,-0.318,-2.342,-0.318 H93.273 c-19.174,0,-34.773,15.6,-34.773,34.773 v99.25 c0,17.149,13.952,31.102,31.101,31.102 h22.467 c4.971,0,9,-4.029,9,-9 v-98.067 c0,-4.971,-4.029,-9,-9,-9 s-9,4.029,-9,9 v89.067 H89.601 c-7.224,0,-13.101,-5.877,-13.101,-13.102 v-99.25 c0,-9.249,7.524,-16.773,16.773,-16.773 H202.97 c-2.753,4.978,-4.325,10.694,-4.325,16.773 v99.25 c0,17.149,13.952,31.102,31.101,31.102 h22.466 c4.971,0,9,-4.029,9,-9 v-98.067 c0,-4.971,-4.029,-9,-9,-9 s-9,4.029,-9,9 v89.067 h-13.466 c-7.224,0,-13.101,-5.877,-13.101,-13.102 v-99.25 c0,-9.249,7.524,-16.773,16.773,-16.773 h109.696 c-2.753,4.978,-4.325,10.694,-4.325,16.773 v99.25 c0,17.149,13.951,31.102,31.101,31.102 h22.466 c4.971,0,9,-4.029,9,-9 v-98.067 c0,-4.971,-4.029,-9,-9,-9 s-9,4.029,-9,9 v89.067 H369.89 c-7.224,0,-13.101,-5.877,-13.101,-13.102 v-99.25 c0,-9.249,7.524,-16.773,16.773,-16.773 h133.164 c9.249,0,16.773,7.524,16.773,16.773 v99.25 c0,7.225,-5.877,13.102,-13.101,13.102 h-13.466 v-87.993 c0,-4.971,-4.029,-9,-9,-9 s-9,4.029,-9,9 v96.993 c0,4.971,4.029,9,9,9 h22.466 c17.149,0,31.101,-13.952,31.101,-31.102 v-99.25 C541.5,289.154,525.9,273.555,506.727,273.555 Z M159.855,252.016 c25.005,0,45.348,-20.343,45.348,-45.348 c0,-25.004,-20.343,-45.347,-45.348,-45.347 s-45.348,20.343,-45.348,45.347 C114.508,231.673,134.851,252.016,159.855,252.016 Z M159.855,179.321 c15.079,0,27.348,12.268,27.348,27.347 s-12.269,27.348,-27.348,27.348 s-27.348,-12.269,-27.348,-27.348 S144.776,179.321,159.855,179.321 Z
  "></path>
</svg>