<svg xmlns="http://www.w3.org/2000/svg" viewBox="110 120 370 370" width="100" height="100">
  <path fill="#fbd872" d="M373.514,132.262c-27.612,0-53.892,10.776-73.514,29.865c-19.622-19.089-45.901-29.865-73.514-29.865
    C168.321,132.262,121,179.583,121,237.748c0,1.568,0.042,3.228,0.13,5.202l0.021,0.39c1.316,27.399,13.114,72.146,61.843,129.716
    c32.634,38.554,74.802,73.559,112.801,93.641c1.315,0.695,2.761,1.043,4.205,1.043s2.89-0.348,4.205-1.043
    c37.999-20.081,80.168-55.087,112.801-93.641c48.729-57.57,60.527-102.316,61.848-129.776l0.016-0.305
    c0.088-1.943,0.131-3.653,0.131-5.226C479,179.583,431.679,132.262,373.514,132.262z M460.887,242.157c0,0.008,0,0.016-0.001,0.024
    l-0.015,0.295c-1.674,34.795-22.13,77.04-57.605,118.95c-30.015,35.462-68.304,67.703-103.266,87.078
    c-34.962-19.375-73.251-51.617-103.267-87.078c-35.475-41.91-55.932-84.155-57.604-118.979l-0.016-0.285
    c-0.077-1.719-0.113-3.122-0.113-4.415c0-48.24,39.246-87.486,87.486-87.486c25.684,0,49.979,11.247,66.658,30.857
    c1.71,2.011,4.216,3.169,6.855,3.169s5.146-1.158,6.855-3.169c16.679-19.61,40.975-30.857,66.658-30.857
    c48.24,0,87.486,39.246,87.486,87.486C461,239.045,460.963,240.487,460.887,242.157z M226.486,184.55
    c-29.334,0-53.198,23.865-53.198,53.197c0,4.971,4.029,9,9,9s9-4.029,9-9c0-19.408,15.79-35.197,35.198-35.197
    c4.971,0,9-4.03,9-9C235.486,188.58,231.457,184.55,226.486,184.55z"/>
</svg>
