<svg width="566" height="119" viewBox="0 0 566 119" fill="none" xmlns="http://www.w3.org/2000/svg">
<path d="M445.833 108.399V64.2192H432.394L431.174 68.4061C435.843 68.4061 436.41 70.0195 436.479 73.4844L436.489 73.421V108.398C436.42 111.863 435.855 113.477 431.184 113.477V117.662H451.135V113.477C446.464 113.477 445.902 111.863 445.833 108.399ZM432.765 47.4638H411.613V51.5938H413.87C416.046 51.5938 417.669 51.9729 418.742 52.7246C419.814 53.4751 420.352 54.699 420.352 56.3953C420.352 57.5339 419.569 60.4347 419.299 61.5344L406.479 105.353L389.966 48.1379H382.859L367.053 106.884L353.857 59.9495C353.664 59.2146 353.49 58.5586 353.331 57.9789C352.838 56.2064 353.03 53.8994 354.555 52.7246C355.531 51.9729 357.009 51.5938 358.996 51.5938H361.253V47.4638H334.171V51.5938C336.155 51.5938 338.299 51.5032 339.934 52.6496C341.255 53.5837 341.942 55.2269 342.431 56.7795L360.436 117.662H369.511L384.539 62.5876L400.578 117.662H409.41L426.257 59.2262C426.737 57.596 427.217 56.2866 427.697 55.2916C429.044 52.5008 430.52 51.8539 432.764 51.5938V47.4638H432.765ZM338.946 87.4153H329.094C328.353 87.4153 327.751 88.017 327.751 88.7596V90.2113C327.751 90.954 328.353 91.5556 329.094 91.5556H338.946C339.688 91.5556 340.29 90.954 340.29 90.2113V88.7596C340.291 88.017 339.69 87.4153 338.946 87.4153ZM487.714 93.2286C486.496 91.9645 484.944 90.7949 483.064 89.7248C481.181 88.6535 478.927 87.5667 476.298 86.4631C474.089 85.5561 472.199 84.7358 470.627 84.006C469.052 83.2763 467.772 82.5233 466.78 81.7418C465.792 80.9642 465.07 80.1128 464.615 79.1864C464.159 78.2613 463.935 77.1654 463.935 75.9013C463.935 74.7343 464.113 73.6617 464.468 72.6887C464.824 71.7145 465.386 70.8722 466.149 70.158C466.912 69.4437 467.893 68.8926 469.093 68.5044C470.293 68.1137 471.739 67.9196 473.427 67.9196C476.378 67.9196 478.544 68.8447 479.923 70.6936C481.3 72.5451 481.991 75.1419 481.991 78.4839C484.295 78.4839 486.072 77.9405 487.32 76.8523C488.572 75.7655 489.195 74.3138 489.195 72.4972C489.195 71.2642 488.887 70.0868 488.27 68.9663C487.653 67.8458 486.729 66.8742 485.495 66.0461C484.262 65.2193 482.738 64.5621 480.921 64.0756C479.102 63.5878 477.01 63.3458 474.641 63.3458C471.817 63.3458 469.253 63.6551 466.951 64.2709C464.647 64.8881 462.667 65.7886 461.01 66.9712C459.358 68.1564 458.083 69.6249 457.192 71.3768C456.3 73.1286 455.853 75.1419 455.853 77.4126C455.853 79.5875 456.161 81.4623 456.778 83.0343C457.395 84.609 458.316 86.0128 459.553 87.2458C460.786 88.4776 462.35 89.6226 464.248 90.6771C466.149 91.7303 468.38 92.8262 470.943 93.9622C473.343 94.9999 475.339 95.9263 476.932 96.7362C478.52 97.5475 479.777 98.3419 480.702 99.1221C481.627 99.901 482.277 100.736 482.648 101.63C483.022 102.52 483.21 103.585 483.21 104.818C483.21 106.149 482.967 107.373 482.48 108.492C481.994 109.611 481.287 110.569 480.362 111.364C479.437 112.16 478.292 112.777 476.933 113.216C475.568 113.653 473.995 113.873 472.211 113.873C470.196 113.873 468.501 113.539 467.123 112.874C465.744 112.209 464.631 111.301 463.79 110.15C462.947 108.998 462.345 107.66 461.988 106.133C461.632 104.611 461.452 102.971 461.452 101.218C460.869 101.218 460.212 101.324 459.482 101.535C458.752 101.746 458.072 102.111 457.438 102.631C456.806 103.149 456.271 103.855 455.831 104.749C455.393 105.639 455.173 106.753 455.173 108.082C455.173 109.834 455.563 111.367 456.343 112.682C457.122 113.996 458.226 115.1 459.654 115.993C461.082 116.885 462.808 117.55 464.837 117.988C466.863 118.426 469.128 118.644 471.627 118.644C474.579 118.644 477.265 118.32 479.684 117.671C482.097 117.022 484.17 116.042 485.888 114.728C487.609 113.413 488.938 111.782 489.881 109.835C490.822 107.889 491.291 105.618 491.291 103.022C491.291 100.945 491 99.1117 490.417 97.5216C489.829 95.9237 488.929 94.4953 487.714 93.2286ZM446.796 32.9675C446.493 32.6725 446.361 32.243 446.446 31.8277L447.851 25.1126C447.942 24.6727 447.483 24.3272 447.085 24.5368L441.016 27.7378C440.642 27.9358 440.192 27.928 439.826 27.7171L433.871 24.3052C433.482 24.0827 433.01 24.4139 433.086 24.8551L434.256 31.6168C434.327 32.0334 434.182 32.4591 433.869 32.7437L428.784 37.3524C428.45 37.6526 428.62 38.2037 429.062 38.2697L435.855 39.2466C436.274 39.3074 436.634 39.5778 436.805 39.9634L439.62 46.223C439.802 46.6319 440.378 46.6422 440.575 46.2411L443.602 40.0824C443.791 39.702 444.161 39.4445 444.581 39.4006L451.403 38.6605C451.848 38.6126 452.034 38.0666 451.714 37.7548L446.796 32.9675ZM564.4 112.335C564.4 109.327 561.992 106.971 558.878 106.971C555.76 106.971 553.318 109.327 553.318 112.335C553.318 115.364 555.76 117.737 558.878 117.737C561.974 117.735 564.4 115.362 564.4 112.335ZM565.623 112.334C565.623 116.026 562.653 118.957 558.878 118.957C555.105 118.957 552.093 116.026 552.093 112.334C552.093 108.641 555.105 105.749 558.878 105.749H558.918C562.653 105.749 565.623 108.64 565.623 112.334ZM302.397 94.1123L289.739 58.2287L277.071 93.0423C281.263 94.7657 285.903 95.7231 290.87 95.7231C295.022 95.7231 298.872 95.1577 302.397 94.1123ZM325.257 114.497H326.572V118.686H299.148V114.497H301.437C306.57 114.497 308.12 111.644 307.209 108.017C307.064 107.434 306.861 106.767 306.601 106.021L303.732 97.8942C299.31 99.4598 294.359 100.36 288.954 100.36C283.963 100.36 279.377 99.5672 275.217 98.1388L272.597 105.339C272.306 106.118 272.078 106.889 271.916 107.652C271.238 110.825 272.113 112.473 273.303 113.327C274.391 114.106 276.055 114.496 278.298 114.496H280.586V118.685H256.23V114.496H258.129C259.103 114.496 259.931 114.391 260.613 114.18C262.249 113.673 263.28 112.136 264.048 110.597C264.55 109.593 265.112 108.293 265.728 106.7L269.796 95.8072C255.908 88.4944 248.107 73.3525 248.107 57.7098C248.107 14.7928 295.862 0.684692 336.688 0.684692C372.384 0.684692 407.648 14.0437 427.068 28.5801C427.22 28.694 427.257 28.9048 427.156 29.0653C427.053 29.2257 426.848 29.2801 426.679 29.1908C412.603 21.6839 381.775 7.43082 339.08 7.43082C301.768 7.43082 254.942 19.2139 254.942 58.697C254.942 72.0961 261.474 83.8547 271.831 90.3575L287.844 47.4638H295.636L311.209 90.0781C317.433 86.0969 322.079 80.2629 324.875 73.3344C324.936 73.1843 325.1 73.1028 325.254 73.1454C325.411 73.1869 325.509 73.3395 325.486 73.4987C324.306 81.3446 319.639 88.5099 312.45 93.4705L318.193 109.187C318.583 110.226 318.981 111.086 319.388 111.768C320.723 114.014 322.666 114.497 325.257 114.497ZM560.124 111.089C560.124 110.486 559.681 110.086 558.719 110.086C558.316 110.086 558.037 110.126 557.875 110.166V112.053H558.599C559.442 112.052 560.124 111.771 560.124 111.089ZM561.569 114.138C561.768 115.143 561.93 115.505 562.052 115.745H560.445C560.243 115.504 560.124 114.942 559.922 114.138C559.803 113.457 559.402 113.136 558.557 113.136H557.834V115.747H556.31V109.162C556.911 109.082 557.755 108.962 558.839 108.962C560.083 108.962 560.644 109.162 561.085 109.483C561.488 109.765 561.767 110.247 561.767 110.888C561.767 111.692 561.166 112.212 560.402 112.455V112.534C561.046 112.735 561.367 113.257 561.569 114.138ZM542.591 107.715V82.7639C542.591 70.44 537.36 63.2514 525.185 63.2514C518.723 63.2514 513.103 65.8029 510.221 71.7804V41.9287H502.22H500.828H495.523V46.113C500.193 46.113 500.76 47.7278 500.828 51.1927V108.399C500.76 111.864 500.194 113.479 495.523 113.479V117.663H515.525V113.479C510.859 113.479 510.289 111.866 510.22 108.408V86.9288C510.22 78.0129 513.948 69.6223 522.293 69.6223C530.587 69.6223 533.243 74.8909 533.243 83.2504V110.042C533.243 113.622 535.396 118.957 542.82 118.957C548.218 118.931 549.178 114.871 549.178 114.871C549.178 114.871 542.591 115.844 542.591 107.715ZM113.042 90.7949C108.15 90.7949 99.5368 90.245 94.9837 94.2262C93.8153 95.247 92.9795 96.5059 92.4775 97.999C91.9742 99.4895 91.7219 101.209 91.7219 103.156C91.7219 106.271 92.3792 108.6 93.6937 110.142C95.007 111.681 97.0435 112.453 99.802 112.453C101.813 112.453 103.64 112.129 105.279 111.478C106.917 110.831 108.312 109.906 109.463 108.703C110.616 107.504 111.5 106.043 112.117 104.322C112.733 102.604 113.042 100.69 113.042 98.58V90.7949ZM128.908 113.427V113.696C128.874 114.752 128.328 118.635 122.233 118.635C115.732 118.635 114.113 110.505 113.898 109.23L113.869 109.046C112.83 110.439 110.701 118.585 97.5132 118.585C95.3072 118.585 93.2551 118.27 91.357 117.637C89.459 117.004 87.8197 116.03 86.4417 114.716C85.0625 113.4 83.9834 111.747 83.2045 109.751C82.4256 107.756 82.0361 105.395 82.0361 102.669C82.0361 97.3793 83.9174 93.4524 87.6825 90.8893C95.2541 85.732 106.103 86.4113 113.042 86.4113V80.4247C113.042 78.6404 112.944 76.9934 112.75 75.4834C112.554 73.9748 112.132 72.6771 111.484 71.5902C110.835 70.5034 109.902 69.6598 108.686 69.0595C107.468 68.4578 105.838 68.159 103.792 68.159C101.879 68.159 100.329 68.4255 99.1447 68.9611C97.9596 69.4968 97.0344 70.2511 96.3707 71.2241C95.7057 72.1984 95.2593 73.3512 95.0316 74.6812C94.8051 76.0126 94.6926 77.4566 94.6926 79.0118C91.9328 79.0118 89.8316 78.5434 88.3889 77.6015C86.9437 76.6608 86.223 75.0396 86.223 72.734C86.223 71.0145 86.6914 69.5537 87.6333 68.353C88.5753 67.1536 89.8652 66.1703 91.5032 65.4082C93.1412 64.6462 95.0484 64.0872 97.2221 63.7288C99.3957 63.373 101.717 63.1945 104.183 63.1945C107.233 63.1945 109.894 63.4933 112.166 64.0937C114.437 64.6953 116.335 65.6761 117.859 67.0372C119.384 68.4022 120.529 70.1774 121.292 72.3666C122.054 74.557 122.435 77.2444 122.435 80.4247V106.269C122.435 107.665 122.512 108.631 122.675 109.552C123.69 115.287 128.908 113.427 128.908 113.427ZM178.011 111.384C176.306 109.99 174.594 107.96 172.875 105.3L159.588 85.5871L166.596 77.7024C169.192 74.7498 171.602 72.4623 173.824 70.8398C176.047 69.2173 178.31 68.4061 180.616 68.4061V64.2192H173.563H160.801V68.4061C165.28 68.4061 166.408 69.7284 163.7 73.0575C160.966 76.0657 158.479 78.8047 158.03 79.3081L146.779 91.6152V53.2357V41.8692H132.081V46.0561C136.75 46.0561 137.316 47.6696 137.384 51.1358V108.399C137.316 111.864 136.75 113.479 132.081 113.479V117.663H152.083V113.479C147.413 113.479 146.848 111.864 146.779 108.399V108.4V99.628L153.309 92.354L162.816 106.91C164.211 109.116 165.518 110.826 166.613 112.142C170.044 116.267 171.726 118.688 177.298 118.688C183.453 118.688 184.217 113.48 184.217 113.48H183.924C181.686 113.477 179.714 112.78 178.011 111.384ZM40.0869 103.5L19.4487 46.5025H0.857422V50.6881C5.52693 50.6881 6.09234 52.3028 6.16091 55.7678V108.399C6.09234 111.864 5.52693 113.479 0.857422 113.479V117.663H17.5507V113.479C12.8812 113.479 12.3158 111.864 12.2472 108.399L12.2459 108.411V54.144L35.3657 117.663H40.7688L63.5962 53.9512V108.399C63.5276 111.864 62.9622 113.479 58.2927 113.479V117.663H78.4884V113.479C73.8202 113.479 73.2535 111.864 73.1849 108.399V55.7678C73.2535 52.3028 73.8202 50.6881 78.4884 50.6881V46.5025H60.5298L40.0869 103.5ZM215.261 86.269C215.261 83.6399 215.066 81.2398 214.678 79.0648C214.288 76.8911 213.671 75.0267 212.828 73.4689C211.984 71.9124 210.871 70.7091 209.493 69.8668C208.114 69.0232 206.419 68.6002 204.407 68.6002C200.707 68.6002 197.862 70.101 195.865 73.1028C193.869 76.1045 192.693 80.4932 192.336 86.269H215.261ZM223.9 76.7048C224.856 79.6755 225.338 83.1223 225.338 87.0479V91.6229H192.141C192.206 95.2586 192.571 98.3833 193.236 100.993C193.9 103.607 194.859 105.756 196.108 107.442C197.357 109.13 198.89 110.371 200.707 111.165C202.525 111.961 204.618 112.358 206.986 112.358C208.705 112.358 210.305 112.163 211.781 111.773C213.257 111.385 214.596 110.866 215.797 110.216C216.998 109.569 218.06 108.831 218.985 108.002C219.91 107.175 220.664 106.307 221.248 105.399C221.702 105.593 222.132 105.998 222.538 106.613C222.943 107.231 223.147 107.96 223.147 108.804C223.147 109.809 222.789 110.89 222.076 112.04C221.362 113.194 220.275 114.255 218.814 115.228C217.353 116.202 215.529 117.013 213.339 117.662C211.148 118.311 208.577 118.635 205.625 118.635C202.021 118.635 198.785 118.027 195.914 116.812C193.042 115.595 190.616 113.819 188.636 111.482C186.657 109.144 185.139 106.281 184.085 102.89C183.031 99.4986 182.505 95.6455 182.505 91.3305C182.505 82.0174 184.418 75.0073 188.247 70.3029C192.075 65.5984 197.528 63.2449 204.601 63.2449C207.815 63.2449 210.702 63.7482 213.265 64.7535C215.828 65.7602 218.003 67.2597 219.787 69.2548C221.573 71.2551 222.943 73.7367 223.9 76.7048ZM247.617 88.7596V90.2113C247.617 90.954 247.015 91.5556 246.272 91.5556H236.422C235.679 91.5556 235.078 90.954 235.078 90.2113V88.7596C235.078 88.017 235.679 87.4153 236.422 87.4153H246.272C247.015 87.4153 247.617 88.017 247.617 88.7596Z" fill="white"/>
</svg>
