<svg width="191" height="203" viewBox="0 0 191 203" fill="none" xmlns="http://www.w3.org/2000/svg">
<path d="M116.376 200.733L75.337 157.768C72.805 155.117 69.092 153.946 65.496 154.666L7.23599 166.32C3.43099 167.082 0.459991 163.066 2.29999 159.652L30.479 107.343C32.218 104.115 32.184 100.223 30.389 97.025L1.30099 45.218C-0.598009 41.834 2.30299 37.768 6.11899 38.462L64.575 49.098C68.183 49.754 71.874 48.519 74.36 45.824L114.643 2.15099C117.275 -0.702009 122.038 0.800991 122.556 4.64499L130.506 63.526C130.996 67.16 133.311 70.29 136.643 71.82L190.627 96.637C194.152 98.258 194.195 103.253 190.699 104.934L137.157 130.689C133.853 132.278 131.592 135.447 131.165 139.09L124.245 198.1C123.794 201.953 119.057 203.539 116.376 200.733Z" fill="#DD363B"/>
</svg>
